PathFileType	4	(X/Y/Z)	s03c0102.trc
DataRate	CameraRate	NumFrames	NumMarkers	Units	OrigDataRate	OrigDataStartFrame	OrigNumFrames
200	200	4	52	mm	200	1250	2000
Frame#	Time	racr			lacr			c7			jug			rlel			rdr			llel			ldr			s2			lic			ric			lasi			rasi			rpsi			lpsi			rgt			lgt			rth1			rth2			rth3			rth4			rlfc			rmfc			rsh1			rsh2			rsh3			rsh4			rlmal			rmmal			rcal			rtoe			rmt5			rmt1			lth1			lth2			lth4			lth3			llfc			lmfc			lsh1			lsh2			lsh3			lsh4			llmal			lmmal			lcal			ltoe			lmt1			lmt5			SBIKE			LBIKE			RBIKE			
		X1	Y1	Z1	X2	Y2	Z2	X3	Y3	Z3	X4	Y4	Z4	X5	Y5	Z5	X6	Y6	Z6	X7	Y7	Z7	X8	Y8	Z8	X9	Y9	Z9	X10	Y10	Z10	X11	Y11	Z11	X12	Y12	Z12	X13	Y13	Z13	X14	Y14	Z14	X15	Y15	Z15	X16	Y16	Z16	X17	Y17	Z17	X18	Y18	Z18	X19	Y19	Z19	X20	Y20	Z20	X21	Y21	Z21	X22	Y22	Z22	X23	Y23	Z23	X24	Y24	Z24	X25	Y25	Z25	X26	Y26	Z26	X27	Y27	Z27	X28	Y28	Z28	X29	Y29	Z29	X30	Y30	Z30	X31	Y31	Z31	X32	Y32	Z32	X33	Y33	Z33	X34	Y34	Z34	X35	Y35	Z35	X36	Y36	Z36	X37	Y37	Z37	X38	Y38	Z38	X39	Y39	Z39	X40	Y40	Z40	X41	Y41	Z41	X42	Y42	Z42	X43	Y43	Z43	X44	Y44	Z44	X45	Y45	Z45	X46	Y46	Z46	X47	Y47	Z47	X48	Y48	Z48	X49	Y49	Z49	X50	Y50	Z50	X51	Y51	Z51	X52	Y52	Z52	
1250	6.2500	498.476993	1399.539123	-159.237387	396.864089	1398.510885	-455.035448	389.889303	1493.045304	-288.938572	388.087158	1318.852438	-289.511736	551.078503	1157.141210	-17.690026	745.740300	939.542486	-54.788451	481.198995	1145.697905	-505.899756	721.887951	949.352698	-435.735161	-110.472324	1206.162856	-171.884141	14.185622	1265.182992	-380.122812	85.299241	1238.830648	-16.662590	56.830943	1194.262950	-347.432983	104.839223	1172.425841	-64.307730	-74.746938	1255.092853	-126.376392	-87.592992	1262.445023	-205.105088	19.247184	1110.602220	-4.735726	-4.822682	1185.343505	-396.966831	104.965216	970.884907	6.424198	177.688289	920.019897	8.598450	216.782354	843.692510	0.456312	204.934252	943.792566	-0.249719	277.019532	730.495936	-30.483757	282.908198	717.140943	-149.582237	211.627209	576.360357	-8.023912	201.159873	489.167468	-24.721441	147.990906	418.433880	-28.941484	230.196045	481.278121	-48.741279	89.876681	300.424884	-56.174822	120.840771	307.854254	-134.512520	22.272723	284.356732	-95.653820	299.721659	147.342437	-115.301789	186.208268	176.144842	-39.350721	215.914345	189.291107	-152.750367	120.310835	1118.229553	-436.077687	205.524255	1110.799399	-449.153957	219.210526	1142.130936	-434.809787	277.217125	1059.190689	-463.052512	413.388712	1017.374824	-462.859592	431.041827	1001.680467	-329.496806	336.471805	862.039347	-467.926313	321.885354	779.985299	-446.177098	263.748564	711.748653	-435.622608	352.977815	768.648861	-426.273070	205.147281	599.425890	-409.895838	243.954120	612.380287	-323.481604	134.651008	564.894559	-359.050062	435.356412	494.242130	-360.483554	342.403853	510.661935	-316.085315	314.422955	495.803687	-430.423244	-216.998005	944.884484	-230.697178	-11.549922	81.719838	-435.020194	-11.704623	80.669849	-34.659424	
1251	6.2550	498.588031	1398.799462	-160.035660	396.224870	1398.410147	-455.478474	389.635599	1492.721385	-289.200915	387.734080	1318.539031	-290.210863	551.032083	1156.453810	-18.030603	745.743740	939.184577	-54.577325	480.900530	1145.907492	-505.968437	721.720095	949.606809	-435.706828	-111.063092	1206.090748	-172.132339	13.428057	1265.799353	-380.220224	84.722820	1238.919593	-16.634907	56.237343	1194.753071	-347.566809	103.489732	1171.696574	-64.546597	-75.342102	1255.275622	-126.642313	-87.942870	1262.287645	-205.210520	19.129433	1111.084758	-4.804142	-5.652125	1184.183575	-396.986125	105.786598	972.312026	5.917098	178.982056	922.131645	7.829595	218.775151	846.153695	0.068744	205.927090	946.050126	-0.951298	279.561026	733.156859	-30.107712	285.599754	719.670824	-149.391770	211.099986	580.044236	-7.908638	198.908182	493.243800	-24.526360	143.949154	423.715420	-29.352710	227.598181	484.766381	-48.723171	83.444745	307.131056	-56.546769	114.848571	313.658740	-134.949668	15.541183	292.259862	-96.139952	290.349861	149.675310	-115.141162	177.494869	181.160657	-39.531279	207.194731	192.841178	-152.808546	119.735877	1115.705541	-436.562195	204.951250	1107.356997	-449.105976	219.140735	1139.086096	-436.165533	276.261666	1055.275107	-462.469449	412.443243	1012.483510	-461.073184	429.461806	997.152334	-328.373869	336.984361	856.314983	-467.681493	323.756396	773.742765	-445.777748	266.568187	704.714930	-435.652337	355.059324	763.023904	-426.646833	210.224108	590.615824	-410.268102	248.323058	604.705824	-323.645242	140.514554	553.737087	-359.716777	443.378087	493.286128	-360.421517	349.572372	505.563865	-318.661265	322.428683	490.615233	-430.858954	-216.939112	944.895779	-230.612286	-11.550526	81.749987	-435.014148	-11.692871	80.669646	-34.647406	
1252	6.2600	498.692071	1398.064551	-160.683524	395.660365	1398.314408	-455.668967	389.429172	1492.396038	-289.188220	387.425549	1318.225912	-290.701526	550.874879	1155.842218	-18.623887	745.795180	938.810740	-54.298418	480.674645	1146.193858	-505.767376	721.598317	949.810184	-435.587795	-111.534010	1206.009713	-172.517816	12.825082	1266.069528	-380.468690	83.850283	1238.789566	-16.756166	55.723261	1194.846079	-347.855051	102.529003	1171.494774	-64.869698	-76.043892	1255.347896	-127.046149	-88.297111	1261.925832	-205.530629	19.000702	1111.531421	-4.904318	-6.326191	1182.740086	-397.223411	106.695583	973.715677	5.178064	180.283844	924.280770	6.903564	221.254753	848.573704	-0.417129	207.008424	948.455438	-1.958555	282.266540	736.013411	-29.822905	288.481416	722.320581	-149.285259	210.891774	584.004743	-7.824680	196.458076	497.617386	-24.949629	140.333054	429.336381	-29.666426	223.973029	488.476097	-49.529032	77.342947	314.296722	-57.033849	108.923030	320.072819	-135.411474	9.250202	300.640019	-96.663160	281.307016	152.675734	-115.006498	168.936400	186.517854	-39.996834	198.997056	197.395855	-152.974540	119.338972	1112.339212	-436.426616	204.455057	1103.290743	-449.186230	218.854826	1135.020216	-436.615864	275.262697	1050.558973	-462.242837	411.286072	1006.677060	-459.856967	427.676509	991.434516	-327.696614	337.251587	849.278309	-467.174064	325.267506	766.393196	-445.611787	269.140803	696.519048	-435.579169	356.795833	755.941537	-426.499145	215.105330	580.860675	-410.794295	252.611875	595.957306	-323.862282	146.062565	541.696833	-360.320273	450.951293	491.951090	-360.512367	357.121506	501.894326	-317.304711	329.845339	485.152521	-432.361493	-216.899309	944.883290	-230.499400	-11.530724	81.742642	-434.998128	-11.672023	80.668440	-34.619083	
1253	6.2650	498.749713	1397.428871	-161.012511	395.254324	1398.296077	-455.655009	389.267156	1492.071268	-288.960591	387.248588	1317.913641	-290.939825	550.655952	1155.140562	-18.859592	745.824911	938.439393	-54.038070	480.574074	1146.520891	-505.293960	721.528002	949.944742	-435.371862	-112.016880	1205.786988	-173.168599	12.295391	1266.011483	-380.848494	83.058209	1238.567052	-16.989612	55.168899	1194.593176	-348.155106	101.821901	1171.847562	-65.459737	-76.740089	1255.244009	-127.671251	-88.733496	1261.486983	-206.054620	18.800087	1111.922476	-5.097991	-6.992346	1181.051363	-397.476964	107.630106	975.157931	4.358711	181.709121	926.591122	5.872449	223.444785	851.227460	-1.074095	208.109496	950.882224	-2.925100	285.216041	739.122504	-29.465362	292.291166	725.290988	-149.284000	211.032872	588.216767	-7.817875	194.619343	502.195701	-25.235617	136.988405	435.184651	-29.940260	221.959960	492.522717	-49.728845	71.572023	321.935616	-57.547398	103.566242	326.714929	-135.948699	3.274403	309.456131	-97.383174	272.326384	156.228811	-114.488706	160.801463	192.642877	-40.221575	190.955757	202.365734	-153.295226	118.971921	1108.633253	-436.750931	203.975974	1098.513820	-449.279894	218.709900	1130.236445	-437.251326	274.311427	1044.781809	-461.340421	409.838444	999.937314	-459.156629	425.819347	984.574425	-327.373604	337.234034	841.055533	-466.726516	326.575478	757.844062	-445.485385	271.495122	687.193530	-435.522534	358.239354	747.792604	-426.381978	219.658322	570.318601	-411.252895	256.520010	586.335462	-324.101023	151.428724	528.908379	-361.020873	457.901901	489.816081	-360.845444	363.804579	496.387736	-317.747474	337.504772	477.898556	-432.002633	-216.867000	944.878058	-230.370407	-11.500403	81.728431	-434.979866	-11.673607	80.658531	-34.624100	
